<svg xmlns="http://www.w3.org/2000/svg" aria-hidden="true" style="width:0;height:0;position:absolute;overflow:hidden"><defs><symbol id="icon-Burger" viewBox="0 0 32 32"><path d="M4 5.333h24V8H4V5.333zm8 9.334h16v2.667H12v-2.667zM4 24h24v2.667H4V24z"/></symbol><symbol id="icon-x" viewBox="0 0 32 32"><path fill="none" stroke="#fff" stroke-linecap="round" stroke-linejoin="round" stroke-width="2.667" d="M24 8 8 24M8 8l16 16" style="stroke:var(--color1,#fff)"/></symbol><symbol id="icon-button-main-desktop" viewBox="0 0 32 32"><path d="M21.177 14.541a.194.194 0 0 0-.143-.231h-.001l-1.69-.39a.193.193 0 0 0-.088.376h.001l1.503.347-.347 1.502a.193.193 0 0 0 .376.088v-.001l.39-1.691zm-9.894 6.249 9.809-6.129-.204-.327-9.809 6.129.204.327zm17.38-3.671c.009-.15.038-.291.087-.422a.955.955 0 0 1 .181-.306l.188.122a1.097 1.097 0 0 0-.242.633v.003c-.01.173.009.299.058.379a.26.26 0 0 0 .212.127.193.193 0 0 0 .16-.057.37.37 0 0 0 .096-.161c.025-.068.047-.145.065-.229s.04-.169.063-.254a.958.958 0 0 1 .093-.224.48.48 0 0 1 .159-.161.444.444 0 0 1 .253-.048c.099.006.187.039.262.099s.132.145.169.253c.04.111.056.244.046.399a1.315 1.315 0 0 1-.072.36l.003-.009a.952.952 0 0 1-.138.284l-.191-.119a.82.82 0 0 0 .133-.253c.031-.091.049-.183.054-.275.009-.164-.012-.287-.066-.369a.256.256 0 0 0-.208-.127.213.213 0 0 0-.166.053.475.475 0 0 0-.102.161l-.001.003c-.025.07-.047.147-.066.229a2.964 2.964 0 0 1-.067.25.99.99 0 0 1-.096.232l.003-.005a.397.397 0 0 1-.395.214.441.441 0 0 1-.272-.106.565.565 0 0 1-.165-.267 1.17 1.17 0 0 1-.039-.409zm1.546 2.378a.83.83 0 0 1-.166.362.593.593 0 0 1-.302.203l-.004.001a.886.886 0 0 1-.448.003l-1.035-.222.052-.241 1.011.217c.188.04.339.023.455-.051.117-.072.194-.193.23-.362.027-.127.025-.243-.007-.349s-.092-.197-.173-.264l-.001-.001a.752.752 0 0 0-.33-.149l-.936-.201.052-.241 2.517.54-.052.241-1.225-.263.102-.028a.652.652 0 0 1 .242.332l.001.005a.868.868 0 0 1 .017.469zm-2.443 1.648a.957.957 0 0 1 .289-.395.902.902 0 0 1 .425-.18l.005-.001a.95.95 0 0 1 .492.071c.169.069.302.168.4.295s.157.27.177.429a.957.957 0 0 1-.071.485.941.941 0 0 1-.291.398.83.83 0 0 1-.423.181h-.004a.935.935 0 0 1-.492-.071.95.95 0 0 1-.4-.295.86.86 0 0 1-.18-.426v-.004a.977.977 0 0 1 .072-.488zm.203.083a.707.707 0 0 0-.053.357.641.641 0 0 0 .14.316.769.769 0 0 0 .312.226c.133.054.26.074.381.059a.612.612 0 0 0 .32-.129l-.001.001a.667.667 0 0 0 .215-.287.67.67 0 0 0-.089-.674l.001.001a.76.76 0 0 0-.312-.226c-.131-.054-.258-.073-.381-.059s-.233.061-.325.131l.002-.001a.68.68 0 0 0-.209.28l-.002.005zm-1.254 1.962a.804.804 0 0 1 .751-.392h-.003c.157.011.32.07.488.176s.29.227.366.362c.078.137.113.278.106.424s-.053.286-.139.421a.914.914 0 0 1-.348.33.81.81 0 0 1-.452.101h.002a.965.965 0 0 1-.471-.158.968.968 0 0 1-.348-.359.837.837 0 0 1-.103-.405l.001-.046v.002a.915.915 0 0 1 .148-.456zm-.053-1.145 2.11 1.331-.126.2-.464-.293-.295-.215-.33-.167-1.027-.648.132-.208zm.247 1.247a.7.7 0 0 0-.112.34v.019c0 .117.03.227.084.323l-.002-.003c.06.109.149.201.269.276s.24.116.362.122l.038.001a.66.66 0 0 0 .307-.075l-.004.002a.672.672 0 0 0 .261-.245.684.684 0 0 0 .111-.343v-.022a.65.65 0 0 0-.084-.322l.002.003c-.059-.106-.148-.196-.268-.272s-.24-.117-.363-.127l-.038-.001a.66.66 0 0 0-.307.075l.004-.002a.714.714 0 0 0-.259.247l-.002.003zm-.921 3.674a.83.83 0 0 1-.342.205.586.586 0 0 1-.372-.006l.004.001a.892.892 0 0 1-.372-.25l-.729-.767.178-.17.712.749c.132.139.267.21.404.214.137.007.269-.05.395-.169a.689.689 0 0 0 .191-.292.535.535 0 0 0 .006-.317.765.765 0 0 0-.188-.309l-.66-.694.178-.17 1.255 1.32-.171.163-.344-.362.092.041a.648.648 0 0 1 .01.42l.001-.005a.865.865 0 0 1-.251.396zm-2.926-.029a.956.956 0 0 1 .519-.168c.145 0 .283.034.404.095l-.005-.002a.947.947 0 0 1 .369.334.947.947 0 0 1 .169.527.873.873 0 0 1-.097.401l.002-.005a.955.955 0 0 1-.33.362.961.961 0 0 1-.537.171.841.841 0 0 1-.387-.094l.005.002a.944.944 0 0 1-.369-.334.953.953 0 0 1-.167-.469c-.002-.02-.002-.042-.002-.066 0-.143.035-.278.096-.396l-.002.005a.97.97 0 0 1 .333-.364zm.121.182a.63.63 0 0 0-.304.61v-.003c.01.124.055.244.133.362.08.119.174.206.283.262a.607.607 0 0 0 .291.074l.047-.002h-.002c.118-.006.231-.046.339-.118s.187-.161.239-.268c.052-.105.074-.218.065-.34s-.053-.242-.133-.362a.765.765 0 0 0-.283-.262.648.648 0 0 0-.304-.074l-.039.001h.002a.677.677 0 0 0-.336.12l.002-.001zm-1.586.713 1.332 1.42-.218.09-1.224-1.322.099-.041.054 1.807-.195.081-1.234-1.318.099-.041.06 1.804-.208.086-.059-1.947.215-.089 1.172 1.235-.067.028-.041-1.703.215-.089zm-3.699 1.11a1.34 1.34 0 0 1 .44 0l-.008-.001a.937.937 0 0 1 .336.115l-.081.209a1.106 1.106 0 0 0-.678-.107l.006-.001c-.172.025-.291.07-.359.134a.263.263 0 0 0-.082.233c.01.067.039.115.088.145a.376.376 0 0 0 .177.061c.072.01.151.016.238.018s.174.005.261.011a.94.94 0 0 1 .238.046.473.473 0 0 1 .19.123c.05.056.083.135.098.238.014.098 0 .19-.044.276s-.115.158-.214.217a.994.994 0 0 1-.381.126 1.27 1.27 0 0 1-.363.003l.007.001a.937.937 0 0 1-.306-.078l.078-.211c.088.043.18.069.274.079.095.012.189.011.28-.003.163-.024.278-.07.348-.139a.257.257 0 0 0 .082-.23.212.212 0 0 0-.086-.152.465.465 0 0 0-.179-.067h-.003a2.063 2.063 0 0 0-.236-.018h-.002a2.75 2.75 0 0 1-.258-.015.948.948 0 0 1-.248-.047l.007.002a.395.395 0 0 1-.289-.343.449.449 0 0 1 .049-.288.569.569 0 0 1 .228-.216c.104-.057.235-.098.392-.121zm-2.053 1.996a.826.826 0 0 1-.388-.09.59.59 0 0 1-.26-.256l-.002-.003a.888.888 0 0 1-.094-.438l.008-1.058.246.002-.008 1.034c-.001.192.046.337.142.435.094.1.228.151.401.152a.703.703 0 0 0 .341-.077.537.537 0 0 0 .224-.224.751.751 0 0 0 .079-.353l.007-.958.246.002-.02 2.574-.246-.002.01-1.252.048.094a.658.658 0 0 1-.277.305l-.003.002a.875.875 0 0 1-.455.111zm-2.085-2.053a.965.965 0 0 1 .446.201c.118.101.209.23.263.377l.002.006a.958.958 0 0 1 .033.496.947.947 0 0 1-.206.453.878.878 0 0 1-.377.26l-.006.002a.953.953 0 0 1-.489.031.968.968 0 0 1-.45-.202.85.85 0 0 1-.264-.374l-.002-.006a.934.934 0 0 1-.033-.496.96.96 0 0 1 .206-.453.867.867 0 0 1 .378-.263l.006-.002a.966.966 0 0 1 .492-.03zm-.04.215a.698.698 0 0 0-.36.022.65.65 0 0 0-.28.201l-.001.001a.755.755 0 0 0-.156.353.748.748 0 0 0 .021.385.615.615 0 0 0 .19.285l.001.001c.089.077.198.128.325.151s.247.014.358-.026a.636.636 0 0 0 .282-.198l.001-.001a.753.753 0 0 0 .156-.352.773.773 0 0 0-.021-.385.677.677 0 0 0-.193-.289l-.001-.001a.67.67 0 0 0-.318-.146l-.004-.001zm-2.176-.823a.868.868 0 0 1 .363.249.816.816 0 0 1 .176.402c.021.156-.003.327-.072.514s-.162.331-.279.433c-.118.104-.249.168-.393.191s-.291.007-.441-.049a.913.913 0 0 1-.395-.272.821.821 0 0 1-.192-.415l-.001-.005a.96.96 0 0 1 .057-.493.957.957 0 0 1 .28-.414.852.852 0 0 1 .414-.192l.005-.001a.921.921 0 0 1 .477.051zm1.109-.288-.868 2.339-.221-.082.191-.514.149-.333.095-.357.422-1.139.231.086zm-1.169.499a.7.7 0 0 0-.356-.04.658.658 0 0 0-.315.151l.001-.001c-.094.081-.166.188-.215.32s-.064.259-.044.38a.656.656 0 0 0 .435.524.658.658 0 0 0 .675-.114l-.001.001c.091-.08.161-.186.21-.318s.066-.259.049-.381a.663.663 0 0 0-.142-.32l.001.001a.712.712 0 0 0-.293-.202l-.005-.002zm-3.787-.153a.82.82 0 0 1-.27-.293.584.584 0 0 1-.07-.364v.003a.879.879 0 0 1 .17-.414l.604-.869.202.141-.59.849c-.109.158-.152.304-.128.439.021.136.103.253.246.352a.687.687 0 0 0 .386.131.536.536 0 0 0 .253-.063l-.003.001a.766.766 0 0 0 .265-.247l.546-.787.202.141-1.039 1.496-.194-.135.285-.41-.022.099a.643.643 0 0 1-.406.095h.003a.874.874 0 0 1-.439-.165zm-.562-2.866c.125.123.21.263.256.418a.898.898 0 0 1 .003.466.95.95 0 0 1-.252.429.94.94 0 0 1-.425.258.865.865 0 0 1-.47 0l.006.001a.94.94 0 0 1-.421-.25.947.947 0 0 1-.258-.42.842.842 0 0 1-.004-.47l-.001.006a.942.942 0 0 1 .252-.429.95.95 0 0 1 .425-.258.862.862 0 0 1 .472-.002l-.006-.001a.966.966 0 0 1 .424.252zm-.153.155a.69.69 0 0 0-.31-.184.635.635 0 0 0-.351.011l.005-.001a.755.755 0 0 0-.327.204.746.746 0 0 0-.199.33.613.613 0 0 0-.002.348l-.001-.004c.03.114.092.217.184.308a.663.663 0 0 0 .66.173l-.005.001a.739.739 0 0 0 .327-.204.773.773 0 0 0 .199-.33.656.656 0 0 0 .002-.349.686.686 0 0 0-.184-.303zm-1.017-1.4-1.116 1.595-.133-.195 1.042-1.469.061.089-1.757.424-.12-.175 1.037-1.478.061.089-1.753.43-.127-.186 1.894-.458.131.192-.967 1.401-.041-.06 1.659-.39.131.192zm-1.849-3.388c.048.124.081.268.09.418v.004a.95.95 0 0 1-.043.353l-.221-.037a1.106 1.106 0 0 0-.036-.687l.003.008c-.061-.163-.129-.27-.205-.323a.257.257 0 0 0-.245-.031.19.19 0 0 0-.123.116.382.382 0 0 0-.024.186c.005.072.015.151.032.236s.031.171.044.258a.94.94 0 0 1 .005.242.48.48 0 0 1-.082.213l.001-.002a.44.44 0 0 1-.213.145c-.093.035-.186.04-.28.015s-.179-.079-.257-.164a1.01 1.01 0 0 1-.203-.347 1.303 1.303 0 0 1-.077-.344v-.005a.922.922 0 0 1 .013-.316l.223.032a.766.766 0 0 0-.02.289v-.004c.008.096.029.187.061.274.057.154.126.258.208.312a.256.256 0 0 0 .241.033.214.214 0 0 0 .131-.115.48.48 0 0 0 .029-.192 2.05 2.05 0 0 0-.034-.249l.002.013a2.68 2.68 0 0 1-.038-.241l-.001-.014a.952.952 0 0 1-.006-.249v.004a.391.391 0 0 1 .276-.354.426.426 0 0 1 .295-.011l-.003-.001a.567.567 0 0 1 .258.178c.078.09.144.209.2.359zm-2.368-1.555a.83.83 0 0 1 .008-.398.6.6 0 0 1 .198-.309l.001-.001a.88.88 0 0 1 .409-.182l1.037-.21.049.242-1.013.205c-.188.038-.32.114-.396.229-.079.113-.101.254-.066.424a.69.69 0 0 0 .146.317.533.533 0 0 0 .265.173.756.756 0 0 0 .362.005l.939-.19.049.242-2.523.511-.049-.242 1.228-.249-.082.066a.65.65 0 0 1-.357-.21l-.001-.001a.86.86 0 0 1-.202-.423zm1.578-2.46a.952.952 0 0 1-.105.478.907.907 0 0 1-.317.336l-.004.002a.94.94 0 0 1-.479.134.939.939 0 0 1-.485-.108.875.875 0 0 1-.333-.317l-.002-.004a.944.944 0 0 1-.131-.472.953.953 0 0 1 .105-.482.853.853 0 0 1 .313-.336l.004-.002a.928.928 0 0 1 .479-.134.95.95 0 0 1 .485.108.877.877 0 0 1 .336.317l.002.004a.972.972 0 0 1 .131.475zm-.218.006a.696.696 0 0 0-.096-.348.638.638 0 0 0-.253-.231l-.004-.002a.76.76 0 0 0-.377-.08.751.751 0 0 0-.372.1.617.617 0 0 0-.24.246.68.68 0 0 0-.081.349.663.663 0 0 0 .353.58.75.75 0 0 0 .377.08.763.763 0 0 0 .372-.1.661.661 0 0 0 .241-.246l.002-.003a.69.69 0 0 0 .078-.346zm.352-2.318a.853.853 0 0 1-.169.407.825.825 0 0 1-.351.254l-.006.002c-.148.053-.321.065-.517.036s-.357-.09-.482-.183c-.127-.094-.216-.208-.268-.345s-.067-.283-.044-.441a.919.919 0 0 1 .184-.443.825.825 0 0 1 .365-.273l.006-.002a.963.963 0 0 1 .494-.047.955.955 0 0 1 .463.188c.122.095.217.22.273.364l.002.006a.916.916 0 0 1 .049.477zm.512 1.026-2.468-.363.034-.233.542.08.357.077.369.019 1.202.177-.036.244zm-.731-1.041a.693.693 0 0 0-.035-.356.663.663 0 0 0-.21-.275l-.002-.001c-.099-.075-.218-.123-.358-.144s-.267-.009-.381.035a.665.665 0 0 0-.423.534.668.668 0 0 0 .04.364l-.002-.005a.663.663 0 0 0 .21.275l.002.001c.097.073.215.12.355.14s.267.01.383-.031a.668.668 0 0 0 .282-.203l.001-.001a.705.705 0 0 0 .137-.33v-.004zm-.628-3.766a.842.842 0 0 1 .231-.324.585.585 0 0 1 .337-.143h.002a.872.872 0 0 1 .44.081l.975.412-.096.227-.952-.403c-.177-.075-.329-.086-.456-.035-.129.049-.227.153-.294.313a.703.703 0 0 0-.059.344c.01.107.05.205.121.292.07.085.168.154.296.208l.882.373-.096.227-1.678-.709.092-.217.46.195-.101-.001a.649.649 0 0 1-.176-.373v-.003a.86.86 0 0 1 .072-.463zm2.689-1.136a.967.967 0 0 1-.357.335.893.893 0 0 1-.41.099l-.048-.001h.002a.958.958 0 0 1-.471-.16.94.94 0 0 1-.339-.364.862.862 0 0 1-.097-.399l.002-.057v.003a.94.94 0 0 1 .159-.463.955.955 0 0 1 .359-.338.831.831 0 0 1 .456-.099h-.002c.16.007.317.061.471.16a.95.95 0 0 1 .339.364.852.852 0 0 1 .099.403l-.002.055v-.002a.966.966 0 0 1-.161.466zm-.183-.118a.688.688 0 0 0 .117-.341l.001-.027a.635.635 0 0 0-.082-.313l.002.003a.752.752 0 0 0-.266-.279.755.755 0 0 0-.417-.13.62.62 0 0 0-.288.071l.003-.002c-.106.053-.194.133-.264.242s-.108.222-.113.34c-.007.117.018.229.075.338s.145.201.266.279a.766.766 0 0 0 .409.13c.108 0 .21-.026.3-.072l-.004.002a.677.677 0 0 0 .259-.241zm1.158-1.28-1.788-.77.164-.17 1.65.723-.075.078-.771-1.635.147-.152 1.657.716-.075.077-.776-1.63.157-.162.832 1.761-.161.167-1.568-.664.051-.052.718 1.545-.161.167zm2.91-2.487a1.412 1.412 0 0 1-.384.173l-.01.002a.924.924 0 0 1-.354.03l-.01-.224a1.121 1.121 0 0 0 .662-.176l-.004.003c.146-.093.238-.182.274-.267a.258.258 0 0 0-.02-.246.193.193 0 0 0-.139-.097.373.373 0 0 0-.187.016c-.07.019-.145.046-.225.08s-.161.066-.243.096a.993.993 0 0 1-.274.057.49.49 0 0 1-.188-.038l.003.001a.452.452 0 0 1-.186-.178.443.443 0 0 1-.073-.246l.001-.026v.001a.536.536 0 0 1 .107-.285 1.01 1.01 0 0 1 .297-.27c.094-.06.201-.11.316-.145l.009-.002a.943.943 0 0 1 .311-.053l.015.225-.034-.001a.825.825 0 0 0-.255.041l.006-.002a1.06 1.06 0 0 0-.259.118l.004-.003c-.139.088-.226.177-.262.268a.254.254 0 0 0 .018.243.217.217 0 0 0 .14.105c.058.01.123.006.194-.012.072-.021.146-.047.224-.08.08-.034.161-.064.242-.091a.997.997 0 0 1 .298-.061c.058 0 .113.013.163.035l-.002-.001a.4.4 0 0 1 .184.167c.057.09.081.184.072.283a.568.568 0 0 1-.121.29 1.17 1.17 0 0 1-.31.269zm1.069-2.66a.826.826 0 0 1 .391-.074.59.59 0 0 1 .345.132l-.001-.001a.889.889 0 0 1 .262.363l.42.972-.226.098-.41-.949c-.076-.176-.178-.29-.306-.34-.126-.054-.27-.046-.429.023a.694.694 0 0 0-.28.208.527.527 0 0 0-.114.293v.002a.756.756 0 0 0 .07.355l.38.879-.226.098-1.021-2.364.226-.098.497 1.15-.082-.067c0-.149.05-.285.134-.395l-.001.002a.865.865 0 0 1 .372-.285zm2.695 1.045a.967.967 0 0 1-.49-.004.906.906 0 0 1-.397-.244.948.948 0 0 1-.23-.441.948.948 0 0 1 .006-.497.878.878 0 0 1 .244-.393l.001-.001a.944.944 0 0 1 .435-.225.955.955 0 0 1 .493.004.846.846 0 0 1 .396.24l.001.001a.934.934 0 0 1 .23.441.95.95 0 0 1-.006.497.876.876 0 0 1-.243.397l-.001.001a.966.966 0 0 1-.438.226zM12.9 3.88a.704.704 0 0 0 .321-.166.638.638 0 0 0 .174-.294l.001-.004a.76.76 0 0 0 .001-.385.75.75 0 0 0-.175-.344.612.612 0 0 0-.286-.183l-.004-.001a.67.67 0 0 0-.359-.007.662.662 0 0 0-.494.46l-.001.005a.752.752 0 0 0-.001.386.765.765 0 0 0 .175.344.668.668 0 0 0 .294.187c.112.033.23.034.354.005zm2.292-.131a.85.85 0 0 1-.433-.081.821.821 0 0 1-.322-.293l-.002-.003c-.082-.134-.13-.3-.142-.499s.014-.368.08-.509c.065-.143.159-.254.282-.334s.264-.124.423-.134a.91.91 0 0 1 .471.089.821.821 0 0 1 .346.305.972.972 0 0 1 .148.474c.011.185-.018.349-.088.492s-.174.26-.302.344l-.003.002a.917.917 0 0 1-.457.147zm-.898.713-.154-2.49.236-.015.034.547-.002.365.057.365.075 1.212-.246.015zm.867-.93a.691.691 0 0 0 .341-.108.67.67 0 0 0 .225-.26l.002-.004c.053-.112.076-.239.067-.38s-.046-.262-.113-.365a.668.668 0 0 0-.254-.233l-.004-.002a.667.667 0 0 0-.352-.069.684.684 0 0 0-.347.113l.003-.002a.67.67 0 0 0-.225.26l-.002.004c-.051.11-.072.235-.064.376s.045.264.11.369c.064.1.151.179.254.233l.004.002a.704.704 0 0 0 .301.067l.057-.002h-.002zm3.64-1.395a.828.828 0 0 1 .365.159.587.587 0 0 1 .21.302.888.888 0 0 1 .012.448l-.202 1.039-.242-.047.198-1.015c.037-.188.017-.34-.06-.454-.074-.116-.196-.19-.367-.223-.127-.025-.243-.02-.349.013s-.195.096-.26.178l-.001.001a.77.77 0 0 0-.143.333l-.183.94-.242-.047.348-1.788.232.045-.095.49-.02-.099a.658.658 0 0 1 .327-.249l.005-.001a.86.86 0 0 1 .468-.025zm1.655 2.39a.973.973 0 0 1-.402-.28.895.895 0 0 1-.189-.421l-.001-.005a.95.95 0 0 1 .06-.494.939.939 0 0 1 .286-.407.864.864 0 0 1 .42-.186l.005-.001a.952.952 0 0 1 .486.06.965.965 0 0 1 .405.281.843.843 0 0 1 .191.423.934.934 0 0 1-.06.494.96.96 0 0 1-.286.407.863.863 0 0 1-.421.189l-.005.001a.961.961 0 0 1-.489-.061zm.079-.204a.704.704 0 0 0 .358.045.642.642 0 0 0 .314-.148l-.001.001a.767.767 0 0 0 .219-.318.753.753 0 0 0 .05-.382.619.619 0 0 0-.136-.317l.001.001a.67.67 0 0 0-.292-.209.66.66 0 0 0-.672.104l.001-.001a.752.752 0 0 0-.218.317.758.758 0 0 0-.05.382.663.663 0 0 0 .137.32c.074.09.171.158.29.204zm1.531.891.391-1.907.2.126-.374 1.762-.091-.057 1.445-1.086.179.113-.365 1.768-.091-.057 1.439-1.09.191.12-1.556 1.172-.197-.124.332-1.67.062.039-1.368 1.016-.197-.124zm3.029 2.351a1.458 1.458 0 0 1-.248-.343l-.004-.008a.962.962 0 0 1-.102-.34l.217-.055a1.083 1.083 0 0 0 .304.609c.12.125.226.196.318.214a.261.261 0 0 0 .237-.069.196.196 0 0 0 .067-.156.384.384 0 0 0-.053-.18 1.834 1.834 0 0 0-.128-.209l.004.006a4.12 4.12 0 0 1-.143-.219.946.946 0 0 1-.099-.213l-.002-.007a.479.479 0 0 1-.01-.229v.003a.441.441 0 0 1 .136-.218.453.453 0 0 1 .247-.125h.003a.538.538 0 0 1 .301.047.992.992 0 0 1 .324.237c.082.085.152.181.211.288.06.106.099.204.115.294l-.217.06a.787.787 0 0 0-.098-.273l.002.004a1.037 1.037 0 0 0-.166-.227c-.114-.118-.219-.186-.315-.202a.255.255 0 0 0-.234.067.212.212 0 0 0-.074.158.466.466 0 0 0 .051.187c.035.066.076.134.124.204.05.071.096.144.138.218a.971.971 0 0 1 .104.223.39.39 0 0 1-.11.435.448.448 0 0 1-.263.128.557.557 0 0 1-.308-.06 1.164 1.164 0 0 1-.327-.249zm2.802.481a.835.835 0 0 1 .161.461.586.586 0 0 1-.067.273l.002-.003a.875.875 0 0 1-.301.331l-.865.61-.142-.201.845-.596c.157-.111.247-.234.27-.369.027-.135-.01-.273-.11-.415a.704.704 0 0 0-.261-.232.534.534 0 0 0-.312-.051.747.747 0 0 0-.333.142l-.783.552-.142-.201 2.104-1.484.142.201-1.024.722.049-.094a.656.656 0 0 1 .416.05l-.004-.002c.136.06.254.162.355.306zm-.455 2.879a.958.958 0 0 1-.096-.48.903.903 0 0 1 .541-.755.939.939 0 0 1 .488-.096.872.872 0 0 1 .439.161l-.003-.002c.13.092.233.218.31.38.077.163.11.324.098.483a.835.835 0 0 1-.156.44l.002-.003a.945.945 0 0 1-.384.316.952.952 0 0 1-.488.096.855.855 0 0 1-.441-.159l.003.002a.97.97 0 0 1-.311-.383zm.198-.093a.699.699 0 0 0 .228.28.627.627 0 0 0 .327.11h.002a.76.76 0 0 0 .377-.078.75.75 0 0 0 .301-.242.606.606 0 0 0 .12-.319v-.002a.66.66 0 0 0-.067-.352.672.672 0 0 0-.555-.389h-.002a.747.747 0 0 0-.377.078.75.75 0 0 0-.3.242.665.665 0 0 0-.122.323v.003a.654.654 0 0 0 .07.352l-.002-.004zm.595 2.218a.844.844 0 0 1-.009-.44.83.83 0 0 1 .223-.378c.114-.108.267-.189.459-.242s.363-.062.515-.026c.153.034.282.104.384.207s.176.232.218.386a.923.923 0 0 1 .01.48.815.815 0 0 1-.228.401.966.966 0 0 1-.434.242.97.97 0 0 1-.5.015.857.857 0 0 1-.401-.228.917.917 0 0 1-.237-.417zm-.882-.733 2.406-.662.062.227-.529.145-.358.073-.345.131-1.171.322-.065-.238zm1.088.658a.687.687 0 0 0 .176.312.669.669 0 0 0 .305.168c.121.029.249.025.385-.012s.248-.099.334-.185a.66.66 0 0 0 .172-.659.663.663 0 0 0-.481-.481l-.005-.001c-.118-.028-.245-.023-.381.015s-.249.098-.338.183a.66.66 0 0 0-.177.3.715.715 0 0 0 .009.361z"/></symbol><symbol id="icon-button-main-mobile" viewBox="0 0 32 32"><path d="M21.535 13.314a.21.21 0 0 0-.173-.241h-.001l-1.872-.296a.211.211 0 0 0-.067.416h.001l1.663.264-.263 1.663a.211.211 0 0 0 .415.068v-.001l.296-1.872zm-9.622 7.067 9.538-6.93-.247-.341-9.538 6.93.248.341zm14.473-3.328a2.27 2.27 0 0 1 .173-.658c.093-.203.197-.358.312-.467l.285.208c-.109.121-.202.26-.274.41l-.004.01a1.732 1.732 0 0 0-.156.553l-.001.008c-.031.272-.011.472.059.601.073.13.181.202.322.218a.304.304 0 0 0 .257-.076.606.606 0 0 0 .165-.246c.045-.105.086-.223.123-.355s.077-.263.121-.394c.045-.132.101-.246.169-.351l-.004.006a.758.758 0 0 1 .264-.24.698.698 0 0 1 .403-.054c.156.018.291.077.404.178s.195.238.245.413c.053.179.067.389.039.632a2.088 2.088 0 0 1-.139.546c-.067.18-.148.325-.242.436l-.291-.203c.101-.117.178-.246.231-.387.056-.141.093-.283.109-.428.029-.258.005-.453-.072-.587a.402.402 0 0 0-.317-.217.34.34 0 0 0-.267.069.748.748 0 0 0-.175.245l-.002.005a3.414 3.414 0 0 0-.123.355 5.02 5.02 0 0 1-.126.388c-.045.134-.101.25-.17.356l.004-.006a.624.624 0 0 1-.249.24l-.003.002a.62.62 0 0 1-.387.061.697.697 0 0 1-.42-.191.892.892 0 0 1-.237-.434 1.855 1.855 0 0 1-.026-.648zm1.97 4.049a1.308 1.308 0 0 1-.356.518.925.925 0 0 1-.527.235h-.004c-.208.027-.44-.011-.698-.114l-1.55-.62.145-.36 1.515.605c.281.112.522.126.721.04.202-.08.354-.248.456-.501.076-.189.104-.371.083-.544a.84.84 0 0 0-.2-.458l.001.001a1.175 1.175 0 0 0-.474-.319l-1.403-.561.145-.36 3.771 1.507-.145.361-1.835-.733.166-.016c.159.162.255.358.289.587.037.231.003.475-.1.732zm-4.158 1.344c.176-.215.382-.369.619-.463a1.399 1.399 0 0 1 .741-.074l-.008-.001c.254.041.491.152.712.331.224.182.38.392.469.628s.112.479.07.727c-.042.248-.152.48-.33.698-.18.22-.387.376-.622.467a1.313 1.313 0 0 1-.736.078l.008.001a1.491 1.491 0 0 1-.712-.331 1.496 1.496 0 0 1-.469-.628 1.334 1.334 0 0 1-.073-.738l-.001.008c.045-.251.156-.485.333-.702zm.268.217a1.097 1.097 0 0 0-.244.515 1.01 1.01 0 0 0 .07.547l-.003-.006c.073.181.196.343.368.483a1.18 1.18 0 0 0 .738.281.97.97 0 0 0 .358-.068l-.007.002c.185-.071.339-.186.455-.332l.002-.002c.12-.141.203-.315.235-.508l.001-.006c.031-.181.011-.362-.059-.541s-.193-.34-.369-.483a1.211 1.211 0 0 0-.549-.262 1.056 1.056 0 0 0-.556.05l.007-.002a1.074 1.074 0 0 0-.449.333zm-2.803 2.079a1.344 1.344 0 0 1 .729-.234c.221 0 .429.055.611.152l-.007-.003c.219.117.416.306.591.567s.274.513.296.757a1.197 1.197 0 0 1-.122.684l.003-.007a1.357 1.357 0 0 1-.471.517 1.44 1.44 0 0 1-.828.257c-.22 0-.426-.055-.608-.151l.007.003a1.53 1.53 0 0 1-.579-.529 1.526 1.526 0 0 1-.276-.845c0-.222.054-.431.15-.614l-.003.007c.11-.222.279-.409.507-.561zm.66-1.681 2.19 3.27-.31.206-.481-.719-.288-.499-.368-.452L22 23.275l.323-.215zm-.445 1.952c-.161.104-.29.245-.377.411l-.003.006a1.03 1.03 0 0 0-.099.544v-.004c.017.195.087.385.211.57s.272.321.445.408c.173.087.352.125.538.115s.365-.072.535-.185c.163-.106.292-.249.379-.418l.003-.006c.081-.168.114-.347.099-.539-.017-.19-.088-.378-.212-.563s-.272-.323-.443-.416a1.042 1.042 0 0 0-.541-.115h.003a1.12 1.12 0 0 0-.536.192zm-3.939 4.175c-.231.036-.44.022-.627-.041a.943.943 0 0 1-.471-.334l-.002-.003c-.129-.164-.215-.384-.257-.658l-.257-1.65.384-.059.251 1.612c.046.299.157.513.333.641.172.132.393.177.664.135.202-.031.372-.1.511-.206a.846.846 0 0 0 .291-.405c.056-.164.067-.354.033-.57l-.232-1.493.384-.059.442 2.839-.368.057-.121-.779.082.137a1.037 1.037 0 0 1-.356.547l-.002.002a1.363 1.363 0 0 1-.68.288zm-3.319-2.881c.273.037.516.141.719.296l-.004-.003c.198.158.344.355.438.59.094.239.12.499.078.781-.042.285-.142.527-.301.725s-.355.343-.589.434a1.492 1.492 0 0 1-.769.075 1.493 1.493 0 0 1-.72-.294 1.33 1.33 0 0 1-.436-.575l-.003-.009a1.478 1.478 0 0 1-.078-.781c.042-.282.142-.523.301-.725.152-.195.352-.345.581-.436l.009-.003a1.53 1.53 0 0 1 .775-.074zm-.051.342a1.11 1.11 0 0 0-.574.057l.008-.003a1.003 1.003 0 0 0-.431.335 1.196 1.196 0 0 0-.227.564c-.033.224-.015.425.054.605a.964.964 0 0 0 .317.439c.145.117.319.191.521.221s.389.009.563-.061c.172-.067.317-.177.436-.329s.194-.34.227-.564c.032-.22.014-.422-.055-.605a1.051 1.051 0 0 0-.319-.444l-.002-.002a1.07 1.07 0 0 0-.51-.214l-.006-.001zm-2.345-.831-.419 3.04-.327-.177.406-2.811.149.08-2.164 1.861-.294-.159.392-2.818.149.08-2.155 1.866-.313-.169 2.331-2.007.323.174-.35 2.661-.101-.055 2.05-1.742.323.174zm-4.599-3.622c.139.192.244.393.315.603.068.212.096.397.083.554l-.352.037a1.717 1.717 0 0 0-.08-.51l.003.012a1.787 1.787 0 0 0-.265-.525l.003.005c-.16-.221-.31-.357-.449-.405a.41.41 0 0 0-.386.055.305.305 0 0 0-.139.228.62.62 0 0 0 .045.297l-.001-.004c.038.108.087.223.149.345s.12.246.175.373c.053.124.09.246.11.366a.76.76 0 0 1-.034.355.703.703 0 0 1-.262.31.717.717 0 0 1-.419.14.853.853 0 0 1-.46-.141 1.573 1.573 0 0 1-.455-.442 2.064 2.064 0 0 1-.26-.482l-.005-.014a1.498 1.498 0 0 1-.115-.484l.353-.045c.004.155.034.301.09.441.053.142.122.272.208.39.152.21.301.339.448.386a.404.404 0 0 0 .381-.052.342.342 0 0 0 .152-.23.752.752 0 0 0-.038-.303 3.06 3.06 0 0 0-.157-.363l.008.018a4.179 4.179 0 0 1-.156-.339l-.012-.032a1.51 1.51 0 0 1-.112-.361l-.001-.009a.623.623 0 0 1 .27-.654.694.694 0 0 1 .421-.14h.018-.001a.895.895 0 0 1 .469.162c.156.104.308.257.456.461zm-4.188-1.667a1.318 1.318 0 0 1-.085-.622.93.93 0 0 1 .235-.531c.136-.159.333-.286.594-.383l1.565-.579.136.364-1.53.565c-.284.105-.472.256-.562.453-.095.195-.095.42.001.677.072.192.173.344.305.459a.846.846 0 0 0 .456.205c.172.022.36-.005.566-.081l1.417-.524.136.364-3.809 1.408-.136-.364 1.853-.685-.112.123a1.027 1.027 0 0 1-.611-.243l.002.001a1.369 1.369 0 0 1-.42-.609zm2.167-3.769a1.503 1.503 0 0 1-.149.767l.004-.009c-.116.225-.283.41-.486.544l-.005.003a1.504 1.504 0 0 1-.749.232 1.485 1.485 0 0 1-.77-.15 1.399 1.399 0 0 1-.539-.486l-.003-.005a1.503 1.503 0 0 1-.227-.739 1.509 1.509 0 0 1 .145-.764c.112-.229.274-.411.486-.547.211-.139.461-.216.749-.232a1.5 1.5 0 0 1 .77.15c.226.112.408.276.547.491.136.216.212.464.227.744zm-.345.018a1.089 1.089 0 0 0-.169-.549l.003.005a1.008 1.008 0 0 0-.408-.353l-.006-.003a1.206 1.206 0 0 0-.598-.11 1.18 1.18 0 0 0-.583.174.976.976 0 0 0-.365.392l-.003.006a1.033 1.033 0 0 0-.112.558v-.003c.011.204.069.383.172.539.1.155.236.276.409.361s.372.123.598.11c.222-.012.417-.07.583-.174a1.04 1.04 0 0 0 .373-.404c.083-.165.118-.348.107-.548zm.667-3.427a1.353 1.353 0 0 1-.329.613l.001-.001a1.308 1.308 0 0 1-.601.347c-.241.06-.514.052-.818-.024s-.547-.197-.727-.362a1.203 1.203 0 0 1-.365-.574l-.002-.008a1.357 1.357 0 0 1 .004-.709l-.002.01c.067-.265.187-.488.359-.666.164-.178.376-.309.616-.373l.009-.002c.243-.067.504-.066.783.004.284.071.516.193.699.366s.307.381.373.624c.068.239.069.491.002.757zm.642 1.689-3.818-.954.091-.361.839.21.548.176.576.088 1.859.464-.095.377zm-.983-1.746c.05-.198.05-.386 0-.564a1.047 1.047 0 0 0-.288-.466l-.001-.001c-.143-.133-.323-.227-.539-.281s-.417-.055-.603-.004a1.058 1.058 0 0 0-.476.276c-.13.134-.225.302-.27.49l-.001.007c-.05.198-.049.388.003.571.053.179.149.334.289.467.141.129.319.221.535.275s.419.058.607.011c.187-.051.348-.147.476-.276a1.12 1.12 0 0 0 .266-.495l.002-.008zm.098-5.716a1.31 1.31 0 0 1 .493-.39.934.934 0 0 1 .578-.069c.206.035.418.14.634.314l1.3 1.048-.245.302-1.27-1.024c-.236-.19-.461-.274-.678-.251-.216.018-.411.133-.583.345a1.094 1.094 0 0 0-.24.496.841.841 0 0 0 .056.495c.069.159.188.307.359.444l1.176.948-.245.302-2.237-1.803.235-.289.613.495-.153-.046a1.011 1.011 0 0 1-.103-.652l-.001.006c.033-.232.136-.455.312-.67zm4.35-.066a1.5 1.5 0 0 1-.721.263h-.006a1.447 1.447 0 0 1-.731-.145l.008.004a1.512 1.512 0 0 1-.585-.524c-.161-.239-.25-.485-.267-.737s.032-.491.144-.716.285-.416.519-.572a1.522 1.522 0 0 1 .851-.272c.219 0 .425.053.607.146l-.008-.003c.228.11.423.285.584.524a1.508 1.508 0 0 1 .271.846c0 .223-.054.434-.149.619l.004-.008c-.115.227-.29.419-.523.575zm-.193-.285c.173-.116.3-.256.383-.421.08-.168.111-.347.093-.537a1.199 1.199 0 0 0-.212-.569 1.18 1.18 0 0 0-.449-.411.96.96 0 0 0-.535-.111h.003a1.068 1.068 0 0 0-.538.189l.003-.002a1.051 1.051 0 0 0-.476.963v-.004c.016.192.086.382.213.569.125.185.275.322.449.411.173.086.352.124.539.113a1.08 1.08 0 0 0 .53-.191l-.003.002zm2.343-.991L10.45 3.698l.362-.087L12.4 5.969l-.165.04.354-2.828.324-.079 1.604 2.355-.165.04.343-2.825.346-.084-.379 3.048-.357.086-1.529-2.209.112-.027-.349 2.664-.356.086zm5.834-.402a2.266 2.266 0 0 1-.649-.243l.011.006a1.477 1.477 0 0 1-.433-.356l.236-.263a1.746 1.746 0 0 0 .933.53c.267.057.469.057.605 0a.407.407 0 0 0 .249-.299.307.307 0 0 0-.05-.263.61.61 0 0 0-.225-.188l-.004-.002a2.757 2.757 0 0 0-.321-.15l-.02-.007a6.752 6.752 0 0 1-.429-.18l.049.02a1.571 1.571 0 0 1-.327-.198.77.77 0 0 1-.211-.281l-.002-.005a.692.692 0 0 1-.013-.406c.033-.153.105-.282.217-.384s.257-.171.436-.204c.183-.035.394-.027.633.024.182.039.358.103.53.192.172.085.308.18.409.283l-.232.269a1.26 1.26 0 0 0-.355-.264l-.007-.003a1.637 1.637 0 0 0-.405-.149l-.011-.002c-.253-.054-.451-.049-.591.014a.401.401 0 0 0-.248.294.337.337 0 0 0 .042.272.761.761 0 0 0 .232.201c.104.056.217.108.341.157.128.05.252.104.373.164.126.056.237.123.332.2a.623.623 0 0 1 .238.666.692.692 0 0 1-.232.398.908.908 0 0 1-.456.194 1.84 1.84 0 0 1-.647-.038zm4.27-1.559c.207.108.367.243.48.404.118.16.179.344.181.552.006.208-.056.436-.185.681l-.776 1.478-.345-.179.758-1.444c.141-.268.179-.506.114-.712-.059-.208-.211-.375-.453-.502a1.098 1.098 0 0 0-.534-.136.852.852 0 0 0-.476.153 1.202 1.202 0 0 0-.366.439l-.702 1.338-.344-.18 1.887-3.596.344.179-.918 1.75v-.166c.167-.136.38-.221.613-.229h.002c.234-.014.474.043.72.172zm.938 4.254a1.51 1.51 0 0 1-.399-.649l-.003-.011a1.427 1.427 0 0 1-.001-.745l-.002.01c.067-.248.2-.472.401-.674.203-.204.428-.339.673-.404a1.386 1.386 0 0 1 .743.003l-.01-.002c.243.066.464.198.664.396.202.2.338.421.405.663.071.244.073.488.007.73-.064.245-.197.47-.401.674a1.504 1.504 0 0 1-.673.405 1.388 1.388 0 0 1-.746 0l.01.002a1.53 1.53 0 0 1-.668-.399zm.244-.244c.148.146.311.243.49.292.181.045.363.041.547-.013.188-.055.361-.161.518-.319.16-.16.265-.333.316-.519a.963.963 0 0 0 .004-.548l.002.007a1.064 1.064 0 0 0-.288-.486 1.057 1.057 0 0 0-.482-.283l-.007-.002a.99.99 0 0 0-.554.008l.007-.002a1.171 1.171 0 0 0-.518.319 1.197 1.197 0 0 0-.316.519 1.044 1.044 0 0 0-.006.549c.05.178.146.337.289.478zm1.787 2.936a1.326 1.326 0 0 1-.17-.654v-.02.001c.008-.232.078-.452.211-.659.138-.206.345-.383.621-.531s.538-.221.783-.221h.022c.238 0 .46.069.647.187l-.005-.003c.195.123.352.296.472.518.13.24.191.485.184.733-.002.259-.08.5-.213.701l.003-.005a1.508 1.508 0 0 1-.582.523 1.527 1.527 0 0 1-.764.198c-.26-.005-.5-.083-.703-.213l.005.003a1.447 1.447 0 0 1-.512-.557zm-1.615-.818 3.469-1.858.177.328-.763.408-.525.237-.485.322-1.689.904-.184-.342zm1.907.631c.097.18.224.319.38.417.16.097.336.147.529.152.196.003.392-.049.589-.154s.346-.239.449-.402c.103-.163.158-.337.165-.523l.001-.033c0-.189-.05-.367-.138-.521l.003.005a1.093 1.093 0 0 0-.383-.417l-.004-.003a1.031 1.031 0 0 0-.529-.151h-.001c-.191-.001-.385.051-.581.156s-.348.239-.456.4a1.036 1.036 0 0 0-.165.523c-.003.188.045.372.142.552z"/></symbol><symbol id="icon-button-main-tablet" viewBox="0 0 32 32"><path d="M21.741 13.667a.212.212 0 0 0-.175-.243h-.001l-1.897-.3a.213.213 0 1 0-.067.421h.001l1.686.267-.267 1.686a.213.213 0 0 0 .421.067v-.001l.3-1.897zm-10.095 7.412 10.01-7.273-.251-.345-10.01 7.273.251.345zm17.082-4.277c.011-.17.046-.329.104-.478l-.004.011c.058-.145.126-.257.203-.337l.207.137a1.215 1.215 0 0 0-.273.699v.004c-.013.192.008.332.061.42a.284.284 0 0 0 .233.142.215.215 0 0 0 .177-.061.417.417 0 0 0 .108-.178c.028-.075.053-.159.074-.253s.046-.187.072-.28c.026-.091.061-.173.105-.247a.535.535 0 0 1 .175-.176l.002-.001a.502.502 0 0 1 .281-.051c.11.007.206.044.289.111s.145.161.186.282c.043.123.059.271.048.442-.01.142-.038.274-.083.398l.003-.01a1.039 1.039 0 0 1-.155.313l-.211-.133a.875.875 0 0 0 .149-.279c.035-.1.055-.202.062-.304.012-.181-.011-.317-.069-.409a.282.282 0 0 0-.229-.142.238.238 0 0 0-.185.057.523.523 0 0 0-.114.177l-.001.004a2.234 2.234 0 0 0-.074.253 3.622 3.622 0 0 1-.076.276 1.077 1.077 0 0 1-.108.256l.003-.005a.431.431 0 0 1-.438.232.494.494 0 0 1-.3-.12.634.634 0 0 1-.181-.297 1.277 1.277 0 0 1-.039-.453zm1.665 2.648a.912.912 0 0 1-.195.395.657.657 0 0 1-.34.216l-.005.001a.997.997 0 0 1-.496-.009l-1.138-.276.064-.265 1.112.27c.206.05.375.036.505-.044.132-.076.22-.207.266-.394.034-.139.035-.268.003-.387s-.097-.221-.184-.297l-.001-.001a.83.83 0 0 0-.361-.174l-1.03-.25.064-.265 2.769.671-.064.265-1.347-.326.113-.028a.723.723 0 0 1 .26.379c.049.157.05.33.004.519zm-2.765 1.712c.083-.176.196-.317.341-.421a.99.99 0 0 1 .481-.176h.004c.179-.015.36.02.541.104.183.086.325.201.427.348s.159.307.172.483c.014.176-.021.353-.105.532a1.064 1.064 0 0 1-.343.425.92.92 0 0 1-.482.177 1.045 1.045 0 0 1-.54-.104 1.055 1.055 0 0 1-.427-.348.948.948 0 0 1-.176-.481v-.003a1.07 1.07 0 0 1 .106-.535zm.219.102a.761.761 0 0 0-.077.392c.013.13.059.249.138.357.081.111.192.2.333.266a.825.825 0 0 0 .418.085.68.68 0 0 0 .361-.126l-.002.001a.747.747 0 0 0 .253-.305.732.732 0 0 0-.062-.751l.001.002a.822.822 0 0 0-.333-.266c-.141-.066-.281-.095-.418-.085s-.262.056-.367.128l.002-.002a.759.759 0 0 0-.246.299l-.002.005zm-1.501 2.062a.954.954 0 0 1 .375-.311.89.89 0 0 1 .486-.065l-.005-.001c.172.025.348.102.525.232s.303.273.377.428c.076.157.104.315.084.476s-.081.312-.186.454a1.003 1.003 0 0 1-.795.424c-.042 0-.084-.003-.125-.008l.005.001a1.061 1.061 0 0 1-.508-.21 1.068 1.068 0 0 1-.356-.423.93.93 0 0 1-.077-.509v.005c.019-.173.085-.337.199-.492zm.031-1.268 2.227 1.631-.154.211-.489-.358-.31-.26-.351-.209-1.084-.794.161-.22zm.176 1.395a.765.765 0 0 0-.15.366.738.738 0 0 0 .064.38.85.85 0 0 0 .276.326.813.813 0 0 0 .484.168.732.732 0 0 0 .293-.061l-.005.002a.739.739 0 0 0 .308-.251.764.764 0 0 0 .153-.444.738.738 0 0 0-.069-.312l.002.004c-.057-.121-.149-.228-.275-.32s-.256-.148-.391-.168a.74.74 0 0 0-.387.055l.005-.002a.78.78 0 0 0-.305.254l-.002.002zm-1.366 3.959a.919.919 0 0 1-.531.201.657.657 0 0 1-.277-.061l.004.002a.976.976 0 0 1-.381-.317l-.717-.926.216-.167.7.905c.13.168.27.262.421.281.15.023.302-.024.454-.142a.78.78 0 0 0 .244-.3.59.59 0 0 0 .041-.351l.001.004a.831.831 0 0 0-.173-.361l-.649-.838.216-.167 1.234 1.594-.207.16-.338-.437.097.056a.722.722 0 0 1-.034.458.963.963 0 0 1-.321.408zm-3.208-.398c.174-.087.351-.126.529-.118.178.012.341.066.49.163.15.1.27.239.359.417.09.181.13.36.119.537a.96.96 0 0 1-.167.489l.002-.003a1.049 1.049 0 0 1-.412.352 1.06 1.06 0 0 1-.532.12.927.927 0 0 1-.491-.162l.003.002a1.038 1.038 0 0 1-.359-.417 1.05 1.05 0 0 1-.118-.538.964.964 0 0 1 .163-.489c.101-.148.239-.265.416-.354zm.108.216a.761.761 0 0 0-.304.259.69.69 0 0 0-.113.365v.001a.84.84 0 0 0 .096.416.826.826 0 0 0 .275.326c.1.072.224.118.357.126h.002a.74.74 0 0 0 .388-.082.741.741 0 0 0 .418-.624v-.001a.829.829 0 0 0-.096-.416.845.845 0 0 0-.275-.326.729.729 0 0 0-.362-.127h-.002l-.035-.001a.746.746 0 0 0-.352.087l.004-.002zm-1.814.543 1.228 1.771-.253.063-1.126-1.646.116-.029-.234 1.987-.227.057-1.137-1.643.115-.029-.226 1.985-.242.061.25-2.141.25-.063 1.084 1.542-.078.02.231-1.871.25-.063zm-4.248.554c.166.005.323.033.47.084.147.053.262.117.344.191l-.129.211a1.21 1.21 0 0 0-.709-.249h-.002c-.192-.006-.331.019-.417.075a.286.286 0 0 0-.134.238.214.214 0 0 0 .068.175.424.424 0 0 0 .181.102c.076.025.161.047.255.066s.188.039.282.063c.092.023.175.055.251.096.076.043.137.1.183.171a.488.488 0 0 1 .06.279.5.5 0 0 1-.102.294l.001-.001a.599.599 0 0 1-.275.195 1.13 1.13 0 0 1-.44.063 1.451 1.451 0 0 1-.4-.069l.011.003a1.056 1.056 0 0 1-.318-.144l.126-.215a.863.863 0 0 0 .284.139c.101.031.203.049.306.052.182.006.317-.022.406-.084a.284.284 0 0 0 .134-.234.238.238 0 0 0-.064-.183.535.535 0 0 0-.181-.108l-.004-.001a2.033 2.033 0 0 0-.241-.063l-.015-.003a3.006 3.006 0 0 1-.302-.072l.024.006a1.114 1.114 0 0 1-.26-.099l.006.003a.445.445 0 0 1-.182-.161l-.001-.002a.446.446 0 0 1-.065-.267.494.494 0 0 1 .109-.304.638.638 0 0 1 .29-.191c.124-.042.275-.061.451-.055zm-2.577 1.754a.918.918 0 0 1-.402-.181.656.656 0 0 1-.227-.333l-.001-.005a.979.979 0 0 1-.007-.496l.237-1.147.267.055-.232 1.12c-.043.208-.023.376.061.503.08.129.215.213.403.252a.78.78 0 0 0 .386-.01.594.594 0 0 0 .291-.195.834.834 0 0 0 .162-.366l.215-1.038.267.055-.577 2.79-.267-.055.281-1.357.032.112a.727.727 0 0 1-.365.271l-.005.001a.955.955 0 0 1-.518.022zm-1.781-2.694c.179.076.324.184.434.325a.996.996 0 0 1 .11 1.022 1.034 1.034 0 0 1-.332.439.965.965 0 0 1-.472.19h-.005a1.056 1.056 0 0 1-.535-.084 1.054 1.054 0 0 1-.437-.327.924.924 0 0 1-.195-.47v-.004a1.045 1.045 0 0 1 .084-.544 1.05 1.05 0 0 1 .332-.439.954.954 0 0 1 .474-.194h.004a1.07 1.07 0 0 1 .539.086zm-.095.223a.771.771 0 0 0-.395-.063.71.71 0 0 0-.353.152l.001-.001a.846.846 0 0 0-.254.343.833.833 0 0 0-.07.421.675.675 0 0 0 .138.354c.078.105.183.186.315.241s.263.075.393.058a.702.702 0 0 0 .356-.148l-.001.001a.82.82 0 0 0 .253-.343c.061-.144.084-.284.07-.421s-.065-.259-.141-.361l.001.002a.76.76 0 0 0-.308-.235l-.005-.002zm-2.114-1.423a.947.947 0 0 1 .324.364.91.91 0 0 1 .083.479c-.018.173-.09.351-.213.533s-.262.313-.415.392c-.154.081-.311.115-.473.102s-.315-.07-.461-.169a1.02 1.02 0 0 1-.353-.397.895.895 0 0 1-.095-.505v.004c.014-.176.078-.348.192-.515.115-.169.252-.293.41-.372a.926.926 0 0 1 .505-.095h-.004c.174.013.34.073.499.18zm1.269-.017-1.551 2.284-.216-.147.341-.502.249-.319.197-.358.755-1.112.226.153zm-1.389.228a.768.768 0 0 0-.372-.136l-.046-.001a.731.731 0 0 0-.336.081l.004-.002a.843.843 0 0 0-.316.287.815.815 0 0 0-.151.463.73.73 0 0 0 .072.317l-.002-.004a.738.738 0 0 0 .262.298.751.751 0 0 0 .374.135h.003l.045.001a.728.728 0 0 0 .336-.081l-.004.002c.119-.061.223-.157.31-.286s.139-.262.154-.397a.735.735 0 0 0-.069-.384l.002.004a.793.793 0 0 0-.264-.295l-.003-.002zm-4.004-1.217a.921.921 0 0 1-.202-.392.633.633 0 0 1 .033-.41l-.002.004a.977.977 0 0 1 .303-.392l.9-.749.175.209-.88.732c-.163.136-.252.279-.266.431-.017.151.035.3.158.448.092.11.195.188.309.233a.59.59 0 0 0 .354.028l-.004.001a.831.831 0 0 0 .355-.186l.815-.678.175.209-1.55 1.29-.167-.201.425-.354-.053.099a.729.729 0 0 1-.465-.019l.005.002a.958.958 0 0 1-.419-.305zm.284-3.211c.093.171.139.345.138.524a.983.983 0 0 1-.148.499l.002-.004a1.06 1.06 0 0 1-.404.374 1.04 1.04 0 0 1-.533.138.963.963 0 0 1-.496-.149l.004.002a1.044 1.044 0 0 1-.367-.399 1.05 1.05 0 0 1-.14-.527c0-.183.053-.353.144-.497l-.002.004a1.04 1.04 0 0 1 .404-.374c.175-.096.353-.142.533-.138a.96.96 0 0 1 .495.145c.151.095.274.229.369.402zm-.213.116a.765.765 0 0 0-.271-.294.694.694 0 0 0-.362-.1h-.009a.84.84 0 0 0-.412.111.827.827 0 0 0-.316.287.674.674 0 0 0-.112.363v.001c-.004.131.028.259.097.385s.16.222.272.289a.691.691 0 0 0 .368.105.83.83 0 0 0 .412-.111.833.833 0 0 0 .316-.287.719.719 0 0 0 .113-.367v-.001a.754.754 0 0 0-.098-.38zM4.794 20.3l-1.728 1.287-.072-.251 1.606-1.18.033.114-1.994-.167-.065-.225 1.603-1.191.033.114-1.992-.159-.069-.24 2.149.178.071.247-1.504 1.135-.022-.077 1.878.168.071.247zm-.71-4.153v.021c0 .161-.024.316-.069.463l.003-.011a1.045 1.045 0 0 1-.178.351l-.216-.121a1.233 1.233 0 0 0 .221-.72c-.002-.192-.032-.33-.092-.414a.285.285 0 0 0-.243-.125c-.074.001-.132.025-.172.074a.421.421 0 0 0-.095.185c-.022.077-.041.163-.055.258s-.032.19-.052.285a1.15 1.15 0 0 1-.086.254.548.548 0 0 1-.164.19.49.49 0 0 1-.276.071H2.6a.5.5 0 0 1-.288-.091l.002.001a.608.608 0 0 1-.206-.267 1.114 1.114 0 0 1-.08-.437v-.008c0-.136.019-.269.053-.394l-.002.01c.032-.131.076-.239.132-.324l.22.117a.876.876 0 0 0-.127.283l-.001.006c-.025.09-.04.194-.04.301v.007c.002.182.035.316.099.403a.284.284 0 0 0 .239.125.239.239 0 0 0 .18-.07.52.52 0 0 0 .101-.185l.001-.004c.022-.08.041-.166.055-.258.015-.095.033-.189.055-.281.02-.095.048-.181.086-.258a.44.44 0 0 1 .42-.264.49.49 0 0 1 .308.098.634.634 0 0 1 .202.283c.047.122.071.272.073.449zm-1.855-2.535a.914.914 0 0 1 .166-.409.654.654 0 0 1 .324-.24l.005-.001a.977.977 0 0 1 .495-.026l1.155.193-.045.269L3.2 13.21c-.209-.035-.376-.008-.5.08-.126.085-.205.223-.236.412a.773.773 0 0 0 .025.386.588.588 0 0 0 .206.283.849.849 0 0 0 .372.148l1.045.174-.045.269-2.81-.468.045-.269 1.367.228-.111.036a.724.724 0 0 1-.285-.354l-.002-.005a.961.961 0 0 1-.042-.517zm2.62-1.885a1.06 1.06 0 0 1-.309.446.996.996 0 0 1-.465.211l-.006.001c-.178.028-.36.007-.547-.064a1.044 1.044 0 0 1-.451-.315.964.964 0 0 1-.207-.463l-.001-.005A1.045 1.045 0 0 1 2.928 11c.071-.187.174-.336.31-.449a.933.933 0 0 1 .462-.212l.005-.001c.175-.029.358-.008.547.064.187.071.337.176.451.315a.952.952 0 0 1 .211.47 1.07 1.07 0 0 1-.066.542zm-.226-.085a.77.77 0 0 0 .048-.397.703.703 0 0 0-.165-.346l.001.001a.843.843 0 0 0-.352-.24.836.836 0 0 0-.423-.054.679.679 0 0 0-.35.152l.001-.001c-.102.082-.179.19-.23.324s-.065.266-.043.394c.02.128.073.244.16.348s.204.184.352.241c.146.055.287.073.423.054s.256-.075.356-.154l-.001.001a.76.76 0 0 0 .225-.321zM5.964 9.47a.945.945 0 0 1-.352.337.894.894 0 0 1-.42.103l-.059-.002h.003c-.174-.012-.354-.076-.541-.193s-.322-.25-.407-.4c-.087-.151-.126-.307-.119-.468s.058-.317.152-.467c.102-.163.23-.285.384-.367a.898.898 0 0 1 .5-.114h-.003c.176.008.351.065.522.172.173.109.302.24.386.396s.122.321.114.497a1.005 1.005 0 0 1-.163.505zm.063 1.267L3.686 9.273l.139-.221.514.322.328.237.365.183 1.139.713-.145.231zm-.278-1.379a.76.76 0 0 0 .122-.376v-.019a.728.728 0 0 0-.094-.359l.002.004c-.067-.12-.166-.222-.299-.304s-.266-.127-.401-.133l-.04-.001a.73.73 0 0 0-.342.084l.004-.002a.746.746 0 0 0-.289.273.75.75 0 0 0-.121.38v.021c0 .13.034.253.094.359l-.002-.004a.84.84 0 0 0 .297.299.885.885 0 0 0 .442.14.73.73 0 0 0 .342-.084l-.004.002a.786.786 0 0 0 .287-.278zM6.82 5.304a.917.917 0 0 1 .384-.215.652.652 0 0 1 .412.018l-.004-.002a.976.976 0 0 1 .403.288l.782.872-.203.182-.764-.852c-.142-.158-.289-.242-.441-.25-.152-.012-.299.046-.442.174a.76.76 0 0 0-.221.317.589.589 0 0 0-.015.354l-.001-.004a.85.85 0 0 0 .198.348l.708.789-.203.182-1.347-1.5.195-.174.369.412-.101-.049a.74.74 0 0 1 .002-.465l-.002.005a.955.955 0 0 1 .29-.43zm3.199.174c-.167.099-.34.152-.519.157h-.013a.997.997 0 0 1-.492-.129L9 5.509a1.047 1.047 0 0 1-.389-.39 1.048 1.048 0 0 1-.158-.527v-.015a.97.97 0 0 1 .131-.487l-.002.005a1.05 1.05 0 0 1 .385-.381c.172-.102.346-.155.522-.159l.033-.001c.171 0 .332.046.47.127l-.004-.002c.156.086.285.216.389.39.102.172.155.347.158.527v.023c0 .175-.047.34-.129.481l.002-.005c-.09.155-.219.282-.388.383zm-.123-.208a.696.696 0 0 0 .37-.654.827.827 0 0 0-.127-.407.832.832 0 0 0-.298-.305.676.676 0 0 0-.353-.099h-.015.001c-.131 0-.258.037-.381.111s-.216.167-.279.282a.694.694 0 0 0-.092.348v.025-.001a.82.82 0 0 0 .127.407.84.84 0 0 0 .298.305.74.74 0 0 0 .372.1.75.75 0 0 0 .379-.114l-.003.002zm1.754-.684-1.353-1.678.248-.082 1.241 1.561-.113.037.09-1.998.223-.073 1.252 1.557-.113.037.083-1.996.237-.078-.096 2.153-.244.08-1.192-1.46.077-.025-.096 1.883-.244.08zm4.169-.878a1.628 1.628 0 0 1-.486-.051l.011.002a1.041 1.041 0 0 1-.357-.166l.114-.22a1.208 1.208 0 0 0 .669.197l.061-.001h-.003c.192-.008.329-.043.411-.106a.283.283 0 0 0 .116-.247.215.215 0 0 0-.08-.17.427.427 0 0 0-.188-.088 1.934 1.934 0 0 0-.25-.046l-.009-.001a5.744 5.744 0 0 1-.32-.047l.033.005a1.115 1.115 0 0 1-.264-.08l.007.003a.532.532 0 0 1-.194-.156l-.001-.001a.491.491 0 0 1-.081-.273l-.001-.027c0-.101.03-.195.082-.274l-.001.002a.597.597 0 0 1 .26-.215c.118-.056.263-.088.434-.095l.06-.001a1.5 1.5 0 0 1 .344.04l-.01-.002c.132.028.241.068.328.121l-.11.224a.856.856 0 0 0-.288-.117l-.006-.001a1.135 1.135 0 0 0-.262-.03l-.049.001h.002c-.182.008-.315.045-.399.113a.279.279 0 0 0-.116.243.233.233 0 0 0 .077.177.54.54 0 0 0 .192.096c.08.02.167.035.259.047.095.011.19.026.283.046.095.016.182.042.261.077a.434.434 0 0 1 .279.411.49.49 0 0 1-.087.311.632.632 0 0 1-.275.212 1.278 1.278 0 0 1-.446.088zm2.487-1.946a.915.915 0 0 1 .414.151.648.648 0 0 1 .252.32.98.98 0 0 1 .043.494l-.153 1.161-.27-.036.15-1.135c.028-.211-.004-.376-.097-.497-.09-.123-.23-.197-.42-.222-.142-.019-.27-.006-.384.038s-.208.119-.275.214l-.001.002a.832.832 0 0 0-.135.378l-.139 1.05-.27-.035.373-2.825.27.036-.181 1.374-.04-.11a.726.726 0 0 1 .344-.297l.005-.002a.966.966 0 0 1 .515-.06zm2.013 2.56a1.074 1.074 0 0 1-.456-.293.99.99 0 0 1-.226-.457l-.001-.006a1.06 1.06 0 0 1 .045-.548 1.04 1.04 0 0 1 .3-.462.964.964 0 0 1 .456-.223l.006-.001c.173-.033.354-.017.54.046.189.064.342.163.459.294.114.124.195.28.228.454l.001.006c.035.174.02.357-.045.548a1.053 1.053 0 0 1-.3.462.96.96 0 0 1-.457.227l-.006.001a1.067 1.067 0 0 1-.544-.048zm.078-.229a.7.7 0 0 0 .738-.142.832.832 0 0 0 .228-.36.843.843 0 0 0 .04-.425.686.686 0 0 0-.163-.344l.001.001a.737.737 0 0 0-.331-.218.74.74 0 0 0-.739.143l.001-.001a.827.827 0 0 0-.228.36.839.839 0 0 0-.04.425.74.74 0 0 0 .165.349.747.747 0 0 0 .329.213zm2.16 1.232a.943.943 0 0 1-.35-.339.891.891 0 0 1-.119-.448v-.024.001c.006-.174.064-.356.173-.547s.238-.331.385-.421c.148-.092.302-.138.464-.136s.319.046.472.134c.166.096.293.219.381.37.091.15.135.314.132.493a1.059 1.059 0 0 1-.153.527 1.064 1.064 0 0 1-.382.401.936.936 0 0 1-.482.133h-.012.001a1.02 1.02 0 0 1-.511-.143zm-1.265.11 1.379-2.392.226.13-.303.526-.225.336-.17.372-.671 1.165-.236-.136zm1.369-.329a.76.76 0 0 0 .381.108.741.741 0 0 0 .374-.107l-.003.002c.118-.071.216-.174.294-.31s.118-.271.119-.406V4.38a.729.729 0 0 0-.097-.365l.002.004a.735.735 0 0 0-.283-.278.754.754 0 0 0-.386-.107.741.741 0 0 0-.374.107l.003-.002c-.114.07-.211.173-.288.308s-.119.271-.124.407v.012c0 .133.035.257.097.365l-.002-.004a.79.79 0 0 0 .288.277zm4.114.929c.114.118.19.243.23.376a.642.642 0 0 1-.003.412l.001-.005a.98.98 0 0 1-.274.413l-.844.813-.189-.196.824-.794c.153-.147.231-.297.234-.449.006-.152-.057-.297-.191-.435a.783.783 0 0 0-.325-.21.577.577 0 0 0-.355-.002l.004-.001a.848.848 0 0 0-.341.211l-.763.735-.189-.196 1.452-1.399.181.188-.398.384.045-.102a.713.713 0 0 1 .465-.015l-.005-.001a.966.966 0 0 1 .441.274zm-.009 3.269a1.063 1.063 0 0 1-.174-.513l-.001-.046c0-.167.041-.325.114-.463l-.003.005c.083-.16.209-.293.377-.401.17-.109.344-.167.522-.175l.046-.001c.166 0 .323.042.46.116l-.005-.003c.156.082.288.207.394.372a1.046 1.046 0 0 1 .178.58c0 .16-.04.311-.112.442l.002-.005a1.036 1.036 0 0 1-.377.401 1.052 1.052 0 0 1-.576.177.953.953 0 0 1-.455-.114l.005.003a1.066 1.066 0 0 1-.396-.375zm.203-.13a.698.698 0 0 0 .668.348h-.003a.835.835 0 0 0 .403-.14.823.823 0 0 0 .295-.308.674.674 0 0 0 .086-.37.746.746 0 0 0-.123-.377.736.736 0 0 0-.62-.35l-.049.002h.002a.822.822 0 0 0-.403.14.832.832 0 0 0-.295.308.731.731 0 0 0-.087.377v-.001a.755.755 0 0 0 .126.374l-.002-.003zm.736 1.729 1.631-1.407.09.245-1.518 1.292-.041-.112 2.001.023.081.22-1.514 1.303-.041-.112 1.998.016.086.234-2.156-.024-.089-.242 1.419-1.239.028.076-1.886-.033-.089-.242z"/></symbol><symbol id="icon-icon-1" viewBox="0 0 32 32"><path d="M12.711 27.852v-3.847l-.172-.722v-6.561c0-1.397-.413-2.474-1.237-3.229-.801-.779-2.015-1.168-3.642-1.168a9.356 9.356 0 0 0-3.16.55c-1.03.344-1.901.813-2.611 1.409L.515 11.81c.939-.755 2.061-1.329 3.367-1.718a13.657 13.657 0 0 1 4.107-.619h.052-.003c2.496 0 4.42.607 5.771 1.821s2.026 3.069 2.026 5.565v10.993h-3.126zm-5.978.206c-1.351 0-2.542-.229-3.573-.687-1.007-.458-1.786-1.088-2.336-1.889C.274 24.657 0 23.729 0 22.699c0-.985.23-1.878.687-2.68.481-.802 1.248-1.443 2.301-1.924 1.077-.481 2.52-.721 4.328-.721h5.772v2.371H7.454c-1.649 0-2.76.275-3.332.824s-.86 1.214-.86 1.992c0 .893.355 1.615 1.065 2.164.71.527 1.695.79 2.954.79 1.237 0 2.313-.275 3.229-.824.939-.55 1.615-1.352 2.027-2.405l.653 2.268c-.435 1.075-1.202 1.935-2.302 2.576-1.099.618-2.485.927-4.157.927z"/><path d="M23.257 28.058c-1.946 0-3.664-.401-5.153-1.202-1.466-.801-2.611-1.901-3.435-3.297-.801-1.398-1.203-3.001-1.203-4.81s.39-3.413 1.169-4.81a8.58 8.58 0 0 1 3.263-3.263c1.398-.802 2.966-1.203 4.707-1.203 1.763 0 3.321.39 4.672 1.169 1.352.778 2.405 1.878 3.161 3.297.778 1.397 1.167 3.034 1.167 4.913 0 .137-.011.298-.034.481 0 .183-.011.355-.035.515H16.044v-2.37h13.775l-1.34.824c.023-1.167-.218-2.209-.721-3.126a5.395 5.395 0 0 0-2.07-2.116l-.026-.014c-.87-.527-1.889-.79-3.057-.79-1.145 0-2.163.264-3.057.79a5.298 5.298 0 0 0-2.095 2.164c-.504.916-.756 1.969-.756 3.16v.55c0 1.214.275 2.303.825 3.264.573.939 1.362 1.672 2.37 2.198s2.164.79 3.47.79c1.076 0 2.049-.183 2.92-.55a6.438 6.438 0 0 0 2.331-1.643l.005-.006 1.821 2.129c-.824.962-1.855 1.695-3.091 2.198-1.214.504-2.577.756-4.088.756zM29.2 6.055H17.176V3.478H29.2v2.577z"/></symbol><symbol id="icon-icon-fb" viewBox="0 0 32 32"><path fill="none" stroke="#fff" stroke-linecap="round" stroke-linejoin="round" stroke-width="2.286" d="M24 2.666h-4a6.666 6.666 0 0 0-6.666 6.666v4.001h-4v5.333h4v10.667h5.334V18.666h4l1.333-5.333h-5.333v-4c0-.736.596-1.333 1.332-1.334h4V2.665z" style="stroke:var(--color1,#fff)"/></symbol><symbol id="icon-icon-ig" viewBox="0 0 32 32"><path fill="none" stroke="#fff" stroke-linecap="round" stroke-linejoin="round" stroke-width="2.286" d="M22.666 2.666H9.332a6.666 6.666 0 0 0-6.666 6.666v13.335a6.666 6.666 0 0 0 6.666 6.666h13.334a6.666 6.666 0 0 0 6.666-6.666v-.001 0V9.332a6.666 6.666 0 0 0-6.666-6.666v0z" style="stroke:var(--color1,#fff)"/><path fill="none" stroke="#fff" stroke-linecap="round" stroke-linejoin="round" stroke-width="2.286" d="M21.334 15.16a5.334 5.334 0 1 1-10.548 1.594l-.004-.029A5.334 5.334 0 0 1 21.33 15.13l.004.03zm2-6.494h.013" style="stroke:var(--color1,#fff)"/></symbol><symbol id="icon-icon-phone-22" viewBox="0 0 32 32"><path d="m29.277 6.061-3.873-3.869c-.453-.456-1.081-.738-1.775-.738s-1.321.282-1.774.738l-4.17 4.164c-.456.454-.738 1.083-.738 1.777s.282 1.323.738 1.777l3.258 3.261a14.81 14.81 0 0 1-3.141 4.629 14.778 14.778 0 0 1-4.625 3.148l-3.258-3.261c-.453-.456-1.081-.738-1.775-.738s-1.321.282-1.774.738L2.195 21.85c-.456.454-.739 1.083-.739 1.778s.282 1.324.739 1.778l3.869 3.869a4.341 4.341 0 0 0 3.785 1.206l-.025.003c4.815-.793 9.593-3.356 13.45-7.21 3.855-3.862 6.415-8.64 7.215-13.456a4.319 4.319 0 0 0-1.21-3.76zM27.91 9.388c-.71 4.287-3.015 8.563-6.487 12.035C17.95 24.896 13.678 27.2 9.39 27.91a1.717 1.717 0 0 1-1.484-.48l-3.799-3.799 4.029-4.033 4.388 4.397.785-.291c4.833-1.812 8.579-5.559 10.35-10.272l.04-.121.291-.785-4.393-4.388 4.029-4.032 3.799 3.799c.393.393.575.945.484 1.484z"/></symbol><symbol id="icon-icon-phone-24" viewBox="0 0 32 32"><path d="m29.387 5.979-3.904-3.901c-.457-.46-1.09-.744-1.789-.744s-1.332.285-1.789.744l-4.207 4.199c-.46.458-.744 1.092-.744 1.793s.285 1.334.744 1.793l3.285 3.288a14.947 14.947 0 0 1-3.168 4.666 14.923 14.923 0 0 1-4.569 3.139l-.095.038-3.284-3.289c-.457-.46-1.09-.744-1.789-.744s-1.332.285-1.789.744L2.08 21.904c-.46.458-.744 1.092-.744 1.793s.285 1.334.744 1.793l3.901 3.9a4.394 4.394 0 0 0 3.088 1.28c.239 0 .469-.019.704-.059 4.853-.8 9.672-3.384 13.563-7.271 3.887-3.893 6.468-8.711 7.275-13.568a4.357 4.357 0 0 0-1.221-3.791zm-1.379 3.354c-.715 4.323-3.04 8.633-6.541 12.135s-7.809 5.827-12.133 6.54a1.716 1.716 0 0 1-1.495-.484l-3.832-3.831 4.063-4.067 4.425 4.433.792-.293c4.873-1.827 8.65-5.604 10.436-10.356l.04-.122.293-.792-4.429-4.427 4.063-4.064 3.832 3.831c.396.396.579.953.487 1.496z"/></symbol><symbol id="icon-icon-phone-28" viewBox="0 0 32 32"><path d="m26.331 6.267-3.346-3.344c-.392-.394-.934-.638-1.534-.638s-1.142.244-1.534.638l-3.606 3.599c-.394.393-.638.936-.638 1.537s.244 1.144.638 1.537l2.816 2.818a12.813 12.813 0 0 1-2.715 4 12.798 12.798 0 0 1-3.916 2.69l-.082.032-2.815-2.819c-.392-.394-.934-.638-1.534-.638s-1.142.244-1.534.638l-3.608 3.599c-.394.393-.638.936-.638 1.537s.244 1.144.638 1.537l3.344 3.343a3.765 3.765 0 0 0 2.647 1.097c.205 0 .402-.016.603-.05 4.16-.686 8.29-2.901 11.625-6.232 3.331-3.337 5.544-7.466 6.235-11.63a3.732 3.732 0 0 0-1.047-3.249zM25.15 9.143c-.613 3.705-2.606 7.4-5.607 10.401s-6.694 4.994-10.4 5.606a1.474 1.474 0 0 1-1.281-.415l-3.285-3.283 3.482-3.486 3.793 3.8.679-.251c4.177-1.566 7.414-4.803 8.945-8.876l.034-.104.251-.679-3.797-3.794 3.482-3.483 3.285 3.283c.339.339.496.817.417 1.282z"/></symbol><symbol id="icon-logo-2" viewBox="0 0 32 32"><path d="M13.081 28.274v-4.068l-.105-.666v-6.803c0-1.566-.444-2.77-1.333-3.612-.865-.842-2.162-1.262-3.893-1.262-1.192 0-2.326.199-3.402.596s-1.987.924-2.735 1.578L.491 12.178c.935-.795 2.057-1.403 3.367-1.824a12.793 12.793 0 0 1 4.138-.666c2.385 0 4.22.596 5.506 1.789 1.309 1.169 1.964 2.958 1.964 5.365v11.432h-2.385zm-6.348.175c-1.38 0-2.583-.222-3.612-.666-1.005-.468-1.777-1.099-2.315-1.894-.538-.818-.807-1.753-.807-2.805 0-.959.222-1.824.666-2.595.468-.795 1.216-1.426 2.244-1.894 1.052-.491 2.455-.736 4.208-.736h6.347v1.859H7.187c-1.777 0-3.016.316-3.717.947-.678.631-1.017 1.415-1.017 2.35 0 1.052.409 1.894 1.227 2.525s1.964.947 3.437.947c1.403 0 2.607-.316 3.612-.947 1.029-.654 1.777-1.59 2.244-2.805l.561 1.718c-.468 1.216-1.286 2.186-2.455 2.911-1.145.725-2.595 1.087-4.348 1.087z"/><path d="M23.391 28.449c-1.917 0-3.601-.398-5.05-1.192-1.45-.818-2.584-1.929-3.402-3.332-.818-1.426-1.227-3.051-1.227-4.875s.386-3.437 1.157-4.839c.795-1.403 1.87-2.502 3.226-3.296 1.379-.818 2.922-1.227 4.629-1.227 1.73 0 3.261.398 4.594 1.192 1.356.771 2.42 1.87 3.191 3.296.771 1.403 1.157 3.028 1.157 4.875 0 .117-.012.245-.035.386v.386H15.605v-1.859h14.694l-.982.736c0-1.333-.292-2.513-.877-3.542-.561-1.052-1.333-1.87-2.315-2.455s-2.116-.877-3.402-.877c-1.262 0-2.396.292-3.402.877s-1.788 1.403-2.35 2.455-.842 2.256-.842 3.612v.386c0 1.403.304 2.642.912 3.717a6.811 6.811 0 0 0 2.595 2.49c1.122.584 2.396.877 3.822.877 1.122 0 2.162-.199 3.121-.596a6.489 6.489 0 0 0 2.525-1.824l1.403 1.613c-.818.982-1.847 1.73-3.086 2.244-1.216.514-2.56.771-4.033.771zm6.242-22.531H17.359v-2.63h12.274v2.63z"/></symbol></defs></svg>